<?xml version="1.0" encoding="UTF-8" standalone="no"?><!-- Generator: Gravit.io --><svg xmlns="http://www.w3.org/2000/svg" xmlns:xlink="http://www.w3.org/1999/xlink" style="isolation:isolate" viewBox="0 0 320 511.604" width="320pt" height="511.604pt"><defs><clipPath id="_clipPath_iTqJG59CvRC4uatRzN8K0sBzHFv5MQre"><rect width="320" height="511.604"/></clipPath></defs><g clip-path="url(#_clipPath_iTqJG59CvRC4uatRzN8K0sBzHFv5MQre)"><path d=" M 169.323 5.066 C 165.993 -0.077 159.125 -1.547 153.982 1.783 C 152.668 2.634 151.55 3.752 150.699 5.066 C 144.533 16.095 0 275.978 0 351.604 C 0 439.97 71.634 511.604 160 511.604 C 248.366 511.604 320 439.97 320 351.604 C 320 275.978 175.467 16.095 169.323 5.066 Z  M 148.929 255.802 L 148.929 322.23 L 82.5 322.23 L 82.5 344.373 L 148.929 344.373 L 148.929 410.802 L 171.071 410.802 L 171.071 344.373 L 237.5 344.373 L 237.5 322.23 L 171.071 322.23 L 171.071 255.802 L 148.929 255.802 Z " fill-rule="evenodd" fill="rgb(211,47,47)"/></g></svg>