<?xml version="1.0" encoding="UTF-8" standalone="no"?><!-- Generator: Gravit.io --><svg xmlns="http://www.w3.org/2000/svg" xmlns:xlink="http://www.w3.org/1999/xlink" style="isolation:isolate" viewBox="0 0 512.015 512.015" width="512.015pt" height="512.015pt"><defs><clipPath id="_clipPath_3gbBURHSFxegdOova66cUyTYRG0VnJzg"><rect width="512.015" height="512.015"/></clipPath></defs><g clip-path="url(#_clipPath_3gbBURHSFxegdOova66cUyTYRG0VnJzg)"><g><g><g><path d=" M 507.426 358.408 C 498.014 342.092 477.064 336.52 461.337 345.634 L 363.118 393.438 C 347.852 401.075 332.441 401.075 298.666 401.075 C 265.651 401.075 215.244 392.738 214.741 392.661 C 210.048 391.902 205.687 395.033 204.919 399.667 C 204.142 404.318 207.283 408.721 211.925 409.489 C 214.05 409.847 264.226 418.142 298.666 418.142 C 334.096 418.142 351.88 418.142 370.67 408.747 L 469.332 360.696 C 473.274 358.418 477.874 357.812 482.286 358.989 C 486.681 360.175 490.367 363 492.637 366.942 C 494.924 370.893 495.53 375.492 494.352 379.896 C 493.174 384.3 490.35 387.977 486.16 390.401 L 370.781 462.209 C 370.542 462.371 345.923 477.876 290.133 477.876 C 241.766 477.876 167.023 436.694 165.947 436.105 C 165.179 435.73 146.67 426.676 110.933 426.676 C 106.223 426.676 102.4 430.499 102.4 435.209 C 102.4 439.919 106.223 443.742 110.933 443.742 C 141.969 443.742 157.96 451.209 157.994 451.209 L 157.994 451.2 C 161.211 452.992 237.328 494.942 290.133 494.942 C 351.744 494.942 379.067 477.193 379.972 476.587 L 494.933 405.035 C 502.826 400.478 508.475 393.114 510.831 384.316 C 513.203 375.5 511.983 366.301 507.426 358.408 Z " fill="rgb(255,255,255)"/><path d=" M 59.733 273.074 L 8.533 273.074 C 3.823 273.074 0 276.897 0 281.607 C 0 286.317 3.823 290.14 8.533 290.14 L 59.733 290.14 C 64.435 290.14 68.266 293.971 68.266 298.673 L 68.266 486.406 C 68.266 491.108 64.435 494.939 59.733 494.939 L 8.533 494.939 C 3.823 494.939 0 498.762 0 503.472 C 0 508.182 3.823 512.005 8.533 512.005 L 59.733 512.005 C 73.847 512.005 85.333 500.519 85.333 486.405 L 85.333 298.674 C 85.333 284.56 73.847 273.074 59.733 273.074 Z " fill="rgb(255,255,255)"/><path d=" M 110.933 324.274 L 179.2 324.274 C 189.158 324.274 206.08 336.972 221.013 348.167 C 239.735 362.213 257.425 375.474 273.066 375.474 L 324.266 375.474 C 337.228 375.474 343.662 381.353 343.833 381.507 C 345.497 383.171 347.682 384.007 349.866 384.007 C 352.051 384.007 354.235 383.171 355.899 381.507 C 359.235 378.17 359.235 372.777 355.899 369.441 C 354.773 368.315 344.294 358.407 324.266 358.407 L 273.066 358.407 C 263.108 358.407 246.186 345.709 231.253 334.514 C 212.531 320.468 194.841 307.207 179.2 307.207 L 110.933 307.207 C 106.223 307.207 102.4 311.03 102.4 315.74 C 102.4 320.45 106.223 324.274 110.933 324.274 Z " fill="rgb(255,255,255)"/><path d=" M 42.667 456.541 C 42.667 449.484 36.924 443.741 29.867 443.741 C 22.81 443.741 17.067 449.484 17.067 456.541 C 17.067 463.598 22.81 469.341 29.867 469.341 C 36.924 469.341 42.667 463.598 42.667 456.541 Z " fill="rgb(255,255,255)"/></g></g></g><g><path d=" M 451.15 56.865 C 420.928 26.644 380.747 10 338.008 10 C 295.268 10 255.087 26.644 224.865 56.865 C 194.644 87.086 178 127.268 178 170.008 C 178 212.747 194.644 252.929 224.865 283.15 C 255.087 313.371 295.268 330.015 338.008 330.015 C 380.747 330.015 420.928 313.371 451.15 283.15 C 481.371 252.929 498.015 212.747 498.015 170.008 C 498.015 127.268 481.371 87.086 451.15 56.865 Z  M 487.644 166.193 L 446.592 67.087 C 471.236 93.073 486.68 127.866 487.644 166.193 Z  M 440.927 61.422 L 341.823 20.371 C 380.15 21.335 414.941 36.779 440.927 61.422 Z  M 334.192 20.371 L 235.088 61.422 C 261.074 36.779 295.865 21.335 334.192 20.371 Z  M 229.423 67.087 L 188.371 166.193 C 189.335 127.866 204.779 93.073 229.423 67.087 Z  M 188.371 173.822 L 215.147 238.465 C 216.238 241.098 219.256 242.349 221.891 241.258 C 224.525 240.167 225.776 237.147 224.684 234.514 L 197.965 170.008 L 238.982 70.982 L 338.008 29.965 L 437.033 70.982 L 478.05 170.008 L 437.032 269.033 L 338.008 310.05 L 238.982 269.033 L 232.585 253.589 C 231.494 250.955 228.474 249.704 225.841 250.795 C 223.207 251.886 221.956 254.906 223.048 257.539 L 229.423 272.928 C 204.779 246.942 189.335 212.149 188.371 173.822 Z  M 402.582 294.476 L 440.927 278.593 C 437.532 281.812 433.987 284.875 430.304 287.768 C 405.79 307.024 375.142 318.806 341.823 319.644 L 402.582 294.476 Z  M 334.192 319.644 C 295.865 318.68 261.074 303.236 235.088 278.593 L 334.192 319.644 Z  M 446.592 272.928 L 487.643 173.822 C 486.68 212.149 471.236 246.942 446.592 272.928 Z " fill="rgb(255,255,255)"/><path d=" M 274.695 139.532 C 266.054 140.986 258.496 143.302 252.439 146.433 C 251.089 147.131 250.116 148.388 249.778 149.869 C 249.44 151.35 249.771 152.906 250.685 154.12 C 256.267 161.545 264.978 168.823 276.107 175.42 C 273.113 177.323 269.853 178.609 264.596 178.609 C 258.793 178.609 255.445 177.093 251.923 174.647 C 249.582 173.022 246.365 173.601 244.739 175.943 C 243.114 178.285 243.693 181.501 246.035 183.126 C 250.169 185.997 255.607 188.932 264.597 188.932 C 275.493 188.932 281.099 184.728 286.045 181.018 C 290.402 177.75 293.844 175.168 301.299 175.168 C 306.563 175.168 309.824 176.458 312.821 178.365 C 312.861 178.392 312.902 178.417 312.943 178.444 C 314.147 179.218 315.315 180.089 316.554 181.018 C 321.501 184.728 327.106 188.932 338.003 188.932 C 348.899 188.932 354.505 184.728 359.451 181.018 C 360.665 180.108 361.809 179.254 362.987 178.492 C 363.065 178.444 363.141 178.395 363.216 178.344 C 366.205 176.448 369.462 175.168 374.705 175.168 C 382.162 175.168 385.604 177.75 389.962 181.018 C 394.909 184.728 400.516 188.932 411.413 188.932 C 420.407 188.932 425.848 185.995 429.983 183.123 C 432.324 181.496 432.903 178.28 431.277 175.939 C 429.652 173.598 426.435 173.019 424.094 174.645 C 420.57 177.093 417.22 178.61 411.413 178.61 C 406.158 178.61 402.898 177.325 399.904 175.424 C 411.035 168.826 419.747 161.547 425.33 154.12 C 426.244 152.906 426.576 151.351 426.237 149.87 C 425.899 148.389 424.926 147.132 423.576 146.434 C 417.519 143.302 409.961 140.986 401.32 139.533 C 405.608 131.815 408.455 124.53 409.789 117.807 C 410.085 116.316 409.709 114.771 408.762 113.583 C 407.815 112.395 406.392 111.685 404.874 111.642 C 398.075 111.45 390.259 112.637 381.827 115.077 C 382.343 106.264 381.746 98.467 380.031 91.83 C 379.651 90.359 378.642 89.13 377.273 88.471 C 375.905 87.812 374.314 87.789 372.928 88.409 C 366.674 91.205 360.21 95.595 353.646 101.488 C 350.33 93.452 346.399 86.604 341.95 81.339 C 340.969 80.178 339.526 79.509 338.007 79.509 C 336.487 79.509 335.045 80.178 334.064 81.339 C 329.614 86.604 325.684 93.452 322.368 101.488 C 315.803 95.595 309.34 91.204 303.086 88.409 C 301.699 87.789 300.109 87.811 298.741 88.471 C 297.372 89.13 296.363 90.36 295.982 91.83 C 294.268 98.467 293.671 106.264 294.187 115.078 C 285.753 112.637 277.937 111.45 271.14 111.641 C 269.621 111.684 268.199 112.394 267.251 113.582 C 266.304 114.77 265.928 116.315 266.224 117.806 C 267.56 124.53 270.406 131.814 274.695 139.532 Z  M 285.492 168.887 C 276.311 163.88 268.788 158.47 263.332 152.962 C 269.041 150.93 275.824 149.513 283.39 148.735 C 283.592 148.725 283.793 148.708 283.993 148.675 C 292.352 147.858 301.655 147.821 311.524 148.596 C 310.984 154.283 310.656 160.124 310.555 166.069 C 307.936 165.315 304.912 164.846 301.297 164.846 C 294.216 164.846 289.376 166.625 285.492 168.887 Z  M 390.517 168.89 C 386.633 166.626 381.79 164.846 374.705 164.846 C 371.096 164.846 368.076 165.314 365.459 166.065 C 365.359 160.122 365.03 154.282 364.49 148.595 C 374.359 147.82 383.662 147.856 392.021 148.675 C 392.221 148.708 392.423 148.725 392.625 148.735 C 400.19 149.513 406.973 150.93 412.682 152.962 C 407.226 158.471 399.701 163.882 390.517 168.89 Z  M 390.16 138.186 C 381.809 137.535 372.749 137.57 363.261 138.331 C 363.041 136.815 362.807 135.312 362.556 133.825 C 367.699 131.255 372.723 129.075 377.544 127.315 C 377.663 127.277 377.78 127.236 377.895 127.19 C 385.103 124.583 391.857 122.907 397.88 122.254 C 396.159 127.22 393.55 132.607 390.16 138.186 Z  M 371.233 101.014 C 371.835 106.231 371.821 112.21 371.19 118.7 C 367.682 120.064 364.104 121.621 360.477 123.357 C 359.577 119.442 358.563 115.67 357.443 112.066 C 362.12 107.529 366.782 103.794 371.233 101.014 Z  M 338.008 93.418 C 348.56 110.066 355.172 139.058 355.172 170.008 C 355.172 170.457 355.163 170.901 355.16 171.349 C 354.509 171.821 353.877 172.294 353.257 172.76 C 350.052 175.164 347.337 177.191 343.164 178.099 L 343.164 125.962 C 343.164 123.112 340.853 120.801 338.002 120.801 C 335.151 120.801 332.84 123.112 332.84 125.962 L 332.84 178.099 C 328.667 177.192 325.952 175.164 322.747 172.76 C 322.13 172.297 321.502 171.826 320.855 171.357 C 320.852 170.906 320.842 170.46 320.842 170.008 C 320.843 139.058 327.455 110.066 338.008 93.418 Z  M 304.782 101.014 C 309.234 103.794 313.895 107.529 318.573 112.066 C 317.452 115.67 316.439 119.442 315.538 123.357 C 311.912 121.622 308.334 120.065 304.826 118.7 C 304.193 112.21 304.18 106.231 304.782 101.014 Z  M 298.122 127.192 C 298.233 127.236 298.345 127.275 298.459 127.311 C 303.284 129.072 308.311 131.254 313.459 133.825 C 313.207 135.312 312.973 136.815 312.753 138.331 C 303.265 137.57 294.205 137.535 285.854 138.186 C 282.465 132.607 279.856 127.22 278.134 122.254 C 284.158 122.907 290.913 124.584 298.122 127.192 Z " fill="rgb(255,255,255)"/><path d=" M 374.705 245.366 C 380.236 245.366 383.399 246.834 385.763 248.271 C 388.198 249.749 391.374 248.975 392.855 246.539 C 394.334 244.102 393.559 240.928 391.122 239.447 C 386.176 236.442 380.958 235.043 374.705 235.043 C 363.809 235.043 358.202 239.247 353.257 242.957 C 348.899 246.225 345.457 248.807 338.002 248.807 C 330.547 248.807 327.105 246.225 322.747 242.957 C 317.8 239.248 312.195 235.043 301.298 235.043 C 295.044 235.043 289.826 236.443 284.88 239.449 C 282.445 240.93 281.67 244.105 283.15 246.541 C 284.631 248.977 287.807 249.752 290.242 248.271 C 292.606 246.835 295.767 245.366 301.298 245.366 C 308.754 245.366 312.196 247.947 316.553 251.216 C 321.5 254.926 327.106 259.13 338.002 259.13 C 348.898 259.13 354.504 254.925 359.451 251.216 C 363.808 247.947 367.25 245.366 374.705 245.366 Z " fill="rgb(255,255,255)"/><path d=" M 301.298 210.267 C 308.754 210.267 312.196 212.849 316.553 216.117 C 321.5 219.827 327.106 224.032 338.002 224.032 C 348.898 224.032 354.504 219.827 359.451 216.117 C 363.808 212.849 367.25 210.267 374.705 210.267 C 382.161 210.267 385.604 212.849 389.961 216.117 C 394.908 219.827 400.515 224.032 411.413 224.032 C 414.264 224.032 416.574 221.721 416.574 218.87 C 416.574 216.019 414.264 213.708 411.413 213.708 C 403.956 213.708 400.514 211.127 396.155 207.859 C 391.208 204.149 385.602 199.944 374.705 199.944 C 363.809 199.944 358.202 204.149 353.257 207.859 C 348.899 211.127 345.457 213.708 338.002 213.708 C 330.547 213.708 327.105 211.127 322.747 207.859 C 317.8 204.149 312.195 199.944 301.298 199.944 C 290.402 199.944 284.796 204.149 279.85 207.859 C 275.492 211.127 272.051 213.708 264.596 213.708 C 261.745 213.708 259.435 216.019 259.435 218.87 C 259.435 221.721 261.745 224.032 264.596 224.032 C 275.492 224.032 281.099 219.827 286.044 216.117 C 290.402 212.849 293.843 210.267 301.298 210.267 Z " fill="rgb(255,255,255)"/><path d=" M 334.01 66.807 C 334.99 68.007 336.458 68.704 338.008 68.704 C 339.557 68.704 341.025 68.007 342.005 66.807 L 351.809 54.803 C 353.612 52.595 353.284 49.343 351.077 47.54 C 348.869 45.737 345.616 46.065 343.814 48.273 L 338.008 55.382 L 332.201 48.273 C 330.399 46.066 327.147 45.736 324.938 47.54 C 322.731 49.343 322.402 52.595 324.206 54.803 L 334.01 66.807 Z " fill="rgb(255,255,255)"/><path d=" M 286.871 77.637 C 287.68 77.637 288.502 77.447 289.267 77.044 C 297.733 72.596 306.759 69.334 316.092 67.349 C 318.881 66.757 320.661 64.016 320.067 61.227 C 319.476 58.439 316.732 56.66 313.945 57.252 C 303.686 59.433 293.768 63.017 284.465 67.906 C 281.941 69.232 280.97 72.352 282.296 74.876 C 283.221 76.633 285.014 77.637 286.871 77.637 Z " fill="rgb(255,255,255)"/><path d=" M 359.92 67.349 C 369.254 69.334 378.281 72.596 386.747 77.044 C 387.513 77.447 388.334 77.637 389.144 77.637 C 391 77.637 392.794 76.633 393.718 74.876 C 395.044 72.352 394.073 69.232 391.549 67.906 C 382.245 63.017 372.325 59.432 362.066 57.251 C 359.281 56.66 356.537 58.439 355.944 61.226 C 355.352 64.016 357.131 66.756 359.92 67.349 Z " fill="rgb(255,255,255)"/><path d=" M 442.959 170.008 C 442.959 222.028 405.72 265.629 354.412 273.68 C 351.596 274.122 349.671 276.763 350.114 279.579 C 350.513 282.124 352.709 283.941 355.206 283.941 C 355.472 283.941 355.741 283.92 356.013 283.878 C 382.857 279.665 407.469 265.957 425.314 245.278 C 443.349 224.379 453.282 197.647 453.282 170.008 C 453.282 139.758 441.645 111.172 420.516 89.517 C 418.525 87.477 415.257 87.435 413.217 89.427 C 411.177 91.418 411.137 94.686 413.127 96.726 C 432.364 116.442 442.959 142.468 442.959 170.008 Z " fill="rgb(255,255,255)"/><path d=" M 320.002 283.878 C 320.274 283.92 320.542 283.941 320.809 283.941 C 323.307 283.941 325.502 282.124 325.901 279.579 C 326.344 276.763 324.419 274.122 321.603 273.68 C 270.295 265.629 233.056 222.028 233.056 170.008 C 233.056 142.468 243.651 116.442 262.889 96.726 C 264.88 94.686 264.839 91.418 262.798 89.427 C 260.758 87.435 257.489 87.477 255.5 89.517 C 234.37 111.172 222.733 139.758 222.733 170.008 C 222.733 197.647 232.666 224.379 250.701 245.278 C 268.546 265.957 293.158 279.666 320.002 283.878 Z " fill="rgb(255,255,255)"/></g></g></svg>